# xmcd CD database file
#
# Track frame offsets:
#	150
#	14690
#	28352
#	54797
#	67472
#	84797
#	98077
#	104682
#	121690
#	145022
#	161412
#	175237
#	189740
#	205402
#	222010
#	233410
#	248447
#	260809
#
# Disc length: 4318 seconds
#
# Revision: 0
# Processed by: cddbd v1.5.1PL2 Copyright (c) Steve Scherf et al.
# Submitted via: CDex 1.51
#
DISCID=f810dc12
DTITLE=Grant Clarkson - Dispensation
DYEAR=1998
DGENRE=Jazz
TTITLE0=Yeah Murdering Animals Is Sad
TTITLE1=No Feeling No More
TTITLE2=What Do Nebulla In Space Do?
TTITLE3=The Musher - part 1 - If You're Lost
TTITLE4=The Musher - part 2 - Different Branches
TTITLE5=The Musher - part 3 - Somewhere That Doesn't Have A Name
TTITLE6=The Musher - part 4 - Underwater Bed
TTITLE7=The Musher - part 5 - Now We're Clipping Along
TTITLE8=The Musher - part 6 - Intimacy
TTITLE9=The Musher - part 7 - One More Step Higher
TTITLE10=World Day Of Atonement - part 1 - Two Main Problems
TTITLE11=part 2 - Jerusalem
TTITLE12=part 3 - NewYork City
TTITLE13=part 4 - Palestine
TTITLE14=part 5 - 400 Years Ago
TTITLE15=part 6 - Atonement
TTITLE16=part 7 - Conspiracy
TTITLE17=Plastic Saxophone
EXTD=YEAR: 1998
EXTT0=
EXTT1=
EXTT2=
EXTT3=
EXTT4=
EXTT5=
EXTT6=
EXTT7=
EXTT8=
EXTT9=
EXTT10=
EXTT11=
EXTT12=
EXTT13=
EXTT14=
EXTT15=
EXTT16=
EXTT17=
PLAYORDER=
